<svg width="164" height="180" viewBox="0 0 164 180" fill="none" xmlns="http://www.w3.org/2000/svg">
<path d="M132.815 156.489C133.637 156.591 134.386 156.007 134.489 155.185L136.156 141.789C136.258 140.967 135.675 140.217 134.853 140.115C134.031 140.013 133.281 140.596 133.179 141.418L131.697 153.326L119.789 151.844C118.967 151.742 118.217 152.325 118.115 153.147C118.013 153.969 118.596 154.719 119.418 154.821L132.815 156.489ZM31.0001 24C31.0001 25.5 31 25.5 31.0003 25.5C31.0009 25.5 31.0016 25.5 31.0028 25.5C31.0053 25.5 31.0093 25.5 31.0148 25.5C31.0259 25.5001 31.043 25.5001 31.0661 25.5002C31.1124 25.5005 31.1825 25.501 31.2755 25.5019C31.4615 25.5039 31.7391 25.5078 32.1005 25.5157C32.8234 25.5314 33.8813 25.563 35.212 25.6263C37.8743 25.7529 41.6245 26.0064 45.9668 26.5133C54.6739 27.5299 65.6656 29.5555 75.0347 33.5665C84.4415 37.5935 91.8792 43.472 94.0951 52.0097C96.3105 60.5456 93.4613 72.3386 80.8165 88.5785L83.1836 90.4216C96.0388 73.9114 99.5647 61.1419 96.9989 51.256C94.4335 41.3718 85.9337 34.969 76.2154 30.8086C66.4596 26.632 55.1388 24.5638 46.3147 23.5336C41.8913 23.0171 38.0712 22.7589 35.3546 22.6296C33.9959 22.565 32.9121 22.5326 32.1658 22.5164C31.7926 22.5082 31.5036 22.5042 31.3068 22.5021C31.2084 22.5011 31.1329 22.5006 31.0815 22.5003C31.0558 22.5002 31.036 22.5001 31.0224 22.5001C31.0156 22.5 31.0104 22.5 31.0066 22.5C31.0048 22.5 31.0031 22.5 31.0022 22.5C31.0009 22.5 31.0001 22.5 31.0001 24ZM80.8165 88.5785C74.4473 96.7585 69.6506 102.919 66.2487 107.545C62.8817 112.124 60.7642 115.35 59.8835 117.612C59.4467 118.734 59.1999 119.894 59.522 120.958C59.8798 122.139 60.7999 122.794 61.7607 123.146C62.6782 123.483 63.8116 123.618 65.0095 123.684C66.2296 123.751 67.6697 123.75 69.2501 123.75C75.6038 123.75 84.9371 123.756 95.8271 127.752C106.7 131.742 119.226 139.751 131.817 155.922L134.184 154.078C121.275 137.499 108.3 129.133 96.8606 124.936C85.4381 120.744 75.6463 120.75 69.2501 120.75C67.6429 120.75 66.294 120.75 65.1732 120.688C64.0303 120.626 63.2711 120.505 62.7942 120.33C62.5693 120.248 62.467 120.174 62.4276 120.138C62.4013 120.114 62.3986 120.106 62.3932 120.088C62.3667 120.001 62.319 119.625 62.6791 118.7C63.3922 116.869 65.2591 113.955 68.6655 109.322C72.037 104.738 76.8028 98.6165 83.1836 90.4216L80.8165 88.5785Z" fill="white"/>
</svg>
