<svg width="30" height="30" viewBox="0 0 30 30" fill="none" xmlns="http://www.w3.org/2000/svg">
<g clip-path="url(#clip0)">
<path d="M25.9435 25.5455C28.0046 23.4844 29.3492 20.9784 29.9778 18.3366C30.1578 17.5798 29.2278 17.069 28.6792 17.6203C28.6725 17.6271 28.6657 17.6339 28.659 17.6406C24.0732 22.2264 16.5832 22.138 12.1094 17.3754C7.89156 12.8853 7.94692 5.91444 12.23 1.48662C12.2841 1.4308 12.3385 1.37563 12.3933 1.32112C12.9435 0.774554 12.4293 -0.151213 11.6748 0.0280855C9.05649 0.650323 6.57132 1.97569 4.52028 4.00488C-1.47664 9.93799 -1.51042 19.5574 4.44651 25.5305C10.3774 31.4777 20.0064 31.4826 25.9435 25.5455Z" fill="#9B51E0"/>
</g>
<defs>
<clipPath id="clip0">
<rect width="30" height="30" fill="white"/>
</clipPath>
</defs>
</svg>
