<svg width="40" height="40" viewBox="0 0 20 20" fill="none" xmlns="http://www.w3.org/2000/svg">
<g clip-path="url(#clip0)">
<path d="M7.18079 1.35924H4.37469C4.1539 1.35924 3.97491 1.53822 3.97491 1.75902C3.97491 1.97981 4.1539 2.1588 4.37469 2.1588H7.18079C7.40158 2.1588 7.58057 1.97981 7.58057 1.75902C7.58057 1.53822 7.40158 1.35924 7.18079 1.35924Z" fill="white"/>
<path d="M18.155 11.4403L14.9699 8.25514C14.3243 7.60954 13.3062 7.57704 12.7006 8.18266C12.4946 8.3885 12.3576 8.64485 12.2986 8.92714C12.0614 8.78813 11.7958 8.70833 11.5216 8.69673C11.3995 8.69154 11.28 8.70039 11.1647 8.7216V6.88231H14.6209C14.8417 6.88231 15.0207 6.70348 15.0207 6.48268C15.0207 6.26189 14.8417 6.0829 14.6209 6.0829H11.1647V1.77032C11.1647 0.794066 10.3706 0 9.39436 0H2.16095C1.18484 0 0.390625 0.794066 0.390625 1.77032V4.5877C0.390625 4.80849 0.56961 4.98748 0.790404 4.98748C1.01105 4.98748 1.19003 4.80849 1.19003 4.5877V3.52798H10.3653V9.15022C10.1732 9.3498 10.0407 9.60508 9.98411 9.87593C9.36155 9.51155 8.57298 9.57396 8.06944 10.0775C7.87596 10.2708 7.74779 10.5063 7.6837 10.758L6.32277 9.39711C5.71746 8.79179 4.78499 8.72542 4.17159 9.21858C4.1307 9.25139 4.09133 9.28679 4.05349 9.32463C3.44787 9.9304 3.48037 10.9483 4.12597 11.5939L6.00615 13.4741H1.19003V7.79356C1.19003 7.57277 1.01105 7.39378 0.790404 7.39378C0.56961 7.39378 0.390625 7.57277 0.390625 7.79356V16.8478C0.390625 17.8241 1.18484 18.6181 2.16095 18.6181H6.76711C6.86934 19.3953 7.53539 19.9972 8.33983 19.9972C8.33983 19.9972 14.5517 20 14.6066 20C15.9315 20 17.2163 19.4703 18.155 18.5316C20.1101 16.5765 20.1101 13.3954 18.155 11.4403V11.4403ZM1.19003 2.72842V1.77032C1.19003 1.23504 1.62567 0.799406 2.16095 0.799406H9.39451C9.92979 0.799406 10.3653 1.23504 10.3653 1.77032V2.72842H1.19003ZM1.19018 16.8478V14.2737H6.80556L9.08766 16.5558C8.86 16.5558 8.63219 16.5558 8.40452 16.5558C8.22874 16.5558 8.05663 16.5722 7.8871 16.622C7.62953 16.6977 7.39226 16.8428 7.20519 17.035C6.99523 17.2506 6.84783 17.5239 6.78633 17.8187H2.16095C1.62567 17.8187 1.19018 17.3831 1.19018 16.8478ZM17.5897 17.9663C16.7666 18.7895 15.6274 19.2385 14.4623 19.198C14.4577 19.1978 8.33998 19.1978 8.33998 19.1978C7.93272 19.1978 7.58315 18.8725 7.55461 18.4661C7.54714 18.3603 7.55202 18.2524 7.55263 18.1463C7.55354 17.9527 7.62236 17.7655 7.7513 17.6204C7.89977 17.4531 8.11629 17.3553 8.33998 17.3553H9.88722L10.4915 17.9596C10.5696 18.0377 10.6718 18.0767 10.7742 18.0767C10.8764 18.0767 10.9787 18.0377 11.0568 17.9596C11.2129 17.8035 11.2129 17.5503 11.0568 17.3942L4.69131 11.0287C4.47784 10.8153 4.36385 10.4948 4.44305 10.1974C4.48196 10.0511 4.56878 9.91636 4.69222 9.82756C4.84496 9.71754 5.02883 9.67527 5.21514 9.69542C5.41961 9.71769 5.61278 9.81779 5.75744 9.96244L10.1532 14.3582C10.2313 14.4362 10.3335 14.4752 10.4358 14.4752C10.5382 14.4752 10.6404 14.4362 10.7185 14.3582C10.8746 14.2021 10.8746 13.9489 10.7185 13.7928L8.70726 11.7816C8.37324 11.4477 8.34074 10.9369 8.63478 10.6428C8.92866 10.3489 9.43953 10.3814 9.77339 10.7153L11.7619 12.7038C11.84 12.782 11.9423 12.8209 12.0445 12.8209C12.1469 12.8209 12.2491 12.782 12.3272 12.7038C12.4833 12.5477 12.4833 12.2946 12.3272 12.1385L11.0228 10.834C10.9602 10.7715 10.9082 10.7026 10.8668 10.6302C10.7844 10.4854 10.7449 10.3259 10.7498 10.1727C10.7556 9.99403 10.8217 9.82405 10.9503 9.69542C10.9652 9.68046 10.9811 9.66658 10.9973 9.65315C11.0011 9.6501 11.0048 9.64689 11.0086 9.64384C11.1398 9.54023 11.3075 9.4879 11.4876 9.49537C11.7091 9.50483 11.9227 9.60157 12.0891 9.76789L13.3934 11.0722C13.4715 11.1503 13.5737 11.1894 13.6761 11.1894C13.7784 11.1894 13.8806 11.1503 13.9587 11.0722C14.1148 10.9163 14.1148 10.6631 13.9587 10.507L13.3369 9.88523C13.1715 9.71922 13.0754 9.50621 13.0659 9.28526C13.0571 9.07667 13.128 8.88579 13.2658 8.748C13.5598 8.45396 14.0706 8.48646 14.4046 8.82048L17.5897 12.0056C19.2331 13.649 19.2331 16.3229 17.5897 17.9663V17.9663Z" fill="white"/>
<path d="M0.421272 6.34366C0.485206 6.49838 0.64283 6.59772 0.809913 6.58978C0.976692 6.582 1.1244 6.46619 1.17277 6.30658C1.21915 6.15399 1.16743 5.98264 1.04383 5.88162C0.90879 5.77146 0.71363 5.7623 0.568367 5.85843C0.411049 5.96265 0.349556 6.17002 0.421272 6.34366V6.34366Z" fill="white"/>
<path d="M5.7778 14.9069C5.15143 14.9069 4.64178 15.4165 4.64178 16.0429C4.64178 16.6691 5.15143 17.1788 5.7778 17.1788C6.40417 17.1788 6.91367 16.6693 6.91367 16.0429C6.91367 15.4165 6.40417 14.9069 5.7778 14.9069V14.9069ZM5.7778 16.3794C5.59225 16.3794 5.44135 16.2285 5.44135 16.0429C5.44135 15.8574 5.59225 15.7063 5.7778 15.7063C5.96335 15.7063 6.11426 15.8574 6.11426 16.0429C6.11426 16.2285 5.96335 16.3794 5.7778 16.3794Z" fill="white"/>
<path d="M3.5575 8.36332C3.4014 8.20722 3.14841 8.20722 2.99216 8.36332C2.44086 8.91462 2.13721 9.64765 2.13721 10.4272C2.13721 11.2069 2.44086 11.9398 2.99216 12.4911C3.07028 12.5693 3.17252 12.6083 3.27475 12.6083C3.37714 12.6083 3.47937 12.5693 3.5575 12.4911C3.71359 12.335 3.71359 12.0819 3.5575 11.9258C3.15726 11.5256 2.93677 10.9933 2.93677 10.4272C2.93677 9.86112 3.15726 9.3289 3.5575 8.92866C3.71359 8.77256 3.71359 8.51942 3.5575 8.36332Z" fill="white"/>
<path d="M12.3674 5.21774H15.6522C15.873 5.21774 16.052 5.03876 16.052 4.81796C16.052 4.59717 15.873 4.41818 15.6522 4.41818H12.3674C12.1468 4.41818 11.9677 4.59717 11.9677 4.81796C11.9677 5.03876 12.1466 5.21774 12.3674 5.21774V5.21774Z" fill="white"/>
<path d="M16.8849 4.97101C16.9493 5.12681 17.1109 5.22782 17.2795 5.21683C17.444 5.2063 17.5885 5.09156 17.6364 4.93393C17.6851 4.77356 17.6256 4.59427 17.4899 4.4957C17.3588 4.40048 17.1808 4.39422 17.0431 4.47876C16.878 4.58023 16.8112 4.79294 16.8849 4.97101V4.97101Z" fill="white"/>
</g>
<defs>
<clipPath id="clip0">
<rect width="20" height="20" fill="white"/>
</clipPath>
</defs>
</svg>
